<?xml version="1.0" ?><svg height="512" id="Layer_1" version="1.1" viewBox="0 0 512.00003 512" width="512" xml:space="preserve" xmlns="http://www.w3.org/2000/svg" xmlns:cc="http://creativecommons.org/ns#" xmlns:dc="http://purl.org/dc/elements/1.1/" xmlns:inkscape="http://www.inkscape.org/namespaces/inkscape" xmlns:rdf="http://www.w3.org/1999/02/22-rdf-syntax-ns#" xmlns:sodipodi="http://sodipodi.sourceforge.net/DTD/sodipodi-0.dtd" xmlns:svg="http://www.w3.org/2000/svg"><defs id="defs7"/><g id="g4616" transform="translate(-3765.9696,-1162.275)"><path d="m 3797.9735,1504.0631 c -8.8641,0 -16,7.136 -16,16 l 0,107.3119 c 0,8.864 7.1359,16 16,16 l 448,0 c 8.864,0 16,-7.136 16,-16 l 0,-107.3119 c 0,-8.864 -7.136,-16 -16,-16 l -448.0006,0 z" id="path4618" style="fill:#37484a;fill-opacity:1;stroke:none"/><path d="m 3865.1059,1224.8687 -69.6179,88.3844 c -17.7004,22.4648 -18.5822,43.3057 0.67,43.3057 19.2524,0 46.722,-20.8409 59.7013,-43.3057 l 51.0576,-88.3844 -41.811,0 z m 45.3623,0 -49.5165,88.3844 c -12.5859,22.4648 -8.7995,43.3057 10.4527,43.3057 19.2523,0 42.0538,-20.8409 49.9186,-43.3057 l 30.9562,-88.3844 -41.811,0 z m 45.2953,0 -29.4151,88.3844 c -7.4739,22.4648 1.1171,43.3057 20.3693,43.3057 19.2524,0 37.2492,-20.8409 40.0019,-43.3057 l 10.8548,-88.3844 -41.8109,0 z m 45.2951,0 -9.3136,88.3844 c -2.3594,22.4648 10.9668,43.3057 30.2192,43.3057 19.2522,0 32.5808,-20.8409 30.2191,-43.3057 l -9.3137,-88.3844 -41.811,0 z m 45.2953,0 10.8547,88.3844 c 2.7528,22.4648 20.7496,43.3057 40.0019,43.3057 19.2522,0 27.8433,-20.8409 20.3695,-43.3057 l -29.4151,-88.3844 -41.811,0 z m 45.2952,0 30.9562,88.3844 c 7.8648,22.4648 30.6662,43.3057 49.9186,43.3057 19.2522,0 23.0386,-20.8409 10.4527,-43.3057 l -49.5165,-88.3844 -41.811,0 z m 45.3622,0 51.0577,88.3844 c 12.9793,22.4648 40.4489,43.3057 59.7012,43.3057 19.2523,0 18.3705,-20.8409 0.67,-43.3057 l -69.6179,-88.3844 -41.811,0 z" id="path4620" style="fill:#1b8e99;fill-opacity:1;stroke:none"/><path d="m 3886.2795,1193.175 c -11.8096,0 -21.3076,9.4969 -21.3076,21.3078 l 0,4.22 313.9844,0 0,-4.22 c 0,-11.8109 -9.4979,-21.3078 -21.3075,-21.3078 l -271.3693,0 z" id="path4622" style="fill:#37484a;fill-opacity:1;stroke:none"/><path d="m 3904.1174,1358.5845 c -7.4386,5.4909 -15.8951,9.5789 -25.0623,11.1869 -10.7415,2.928 -22.4138,-0.589 -30.1873,-8.156 l 0,128.6705 c 18.4101,-0.125 36.8377,-0.2 55.2496,-0.25 z m 235.6545,0.03 0,131.5144 c 18.4295,0 36.8525,0 55.2809,-0.06 l 0,-128.4825 c -2.6789,2.728 -5.8244,4.984 -9.3124,6.531 -15.867,5.6339 -32.7082,0.141 -45.9685,-9.4999 z" id="path4624" style="fill:#37484a;fill-opacity:1;stroke:none"/><path d="m 4021.3017,1424.6296 c -7.7965,0.035 -12.7041,0.4707 -20,3.5625 -4.6081,1.9517 -10.7277,8.2106 -13.9376,19.4062 l -12.25,42.5938 c 31.2318,0.018 62.4869,0.064 93.7188,0.094 l -12.25,-42.6876 c -3.2099,-11.1956 -9.3301,-17.4545 -13.9375,-19.4062 -8.3384,-3.534 -13.5478,-3.6007 -21.3437,-3.5625 z" id="path4626" style="font-size:medium;font-style:normal;font-variant:normal;font-weight:normal;font-stretch:normal;text-indent:0;text-align:start;text-decoration:none;line-height:normal;letter-spacing:normal;word-spacing:normal;text-transform:none;direction:ltr;block-progression:tb;writing-mode:lr-tb;text-anchor:start;baseline-shift:baseline;color:#000000;fill:#37484a;fill-opacity:1;fill-rule:nonzero;stroke:none;stroke-width:4;marker:none;visibility:visible;display:inline;overflow:visible;enable-background:accumulate;font-family:Sans;-inkscape-font-specification:Sans"/><path d="m 4021.9656,1381.6733 c -11.1243,0 -20.1312,9.0223 -20.1312,20.1471 0,11.1243 9.0069,20.1466 20.1312,20.1466 11.1245,0 20.147,-9.0223 20.147,-20.1466 0,-11.1248 -9.0225,-20.1471 -20.147,-20.1471 z" id="path4628" style="fill:#37484a;fill-opacity:1;stroke:none"/></g></svg>